Coordinates
version=1
nRows=19
nColumns=36
inDegrees=yes

Units are S.I. units (second, meters, Newtons, ...)
If the header above contains a line with 'inDegrees', this indicates whether rotational values are in degrees (yes) or radians (no).

endheader
time	pelvis_tilt	pelvis_list	pelvis_rotation	pelvis_tx	pelvis_ty	pelvis_tz	hip_flexion_r	hip_adduction_r	hip_rotation_r	knee_angle_r	knee_angle_r_beta	ankle_angle_r	subtalar_angle_r	mtp_angle_r	hip_flexion_l	hip_adduction_l	hip_rotation_l	knee_angle_l	knee_angle_l_beta	ankle_angle_l	subtalar_angle_l	mtp_angle_l	lumbar_extension	lumbar_bending	lumbar_rotation	arm_flex_r	arm_add_r	arm_rot_r	elbow_flex_r	pro_sup_r	arm_flex_l	arm_add_l	arm_rot_l	elbow_flex_l	pro_sup_l
      3.86666670	      5.72143819	      9.40867207	     37.85290058	      0.93831749	      1.01627923	     -0.29494242	     34.27030502	    -19.08224498	     -3.37929651	     20.33504592	      0.35491350	     -0.28710146	      2.49058010	     -7.49999987	      9.11504203	     18.96707900	      9.97133321	     42.53703818	      0.74241137	     21.37389434	    -27.49603397	     -7.49999987	    -25.66356488	     -2.58669460	     -3.73209572	     65.82586281	     -2.43521327	     51.20552005	    118.70035378	     91.82122389	     59.51154243	      2.00035472	     58.82113017	    112.49574254	    106.62384132
      3.88333330	      5.71945164	     10.42052326	     38.18589169	      0.94436032	      1.01148148	     -0.29688974	     34.48829582	    -20.25435385	     -2.63663335	     20.49909199	      0.35777665	     -1.02226429	      2.35926905	     -7.49999987	      9.24532321	     20.30035964	     10.28353158	     43.81266879	      0.76467532	     21.89476092	    -28.04364209	     -7.49999987	    -26.54410771	     -3.09704953	     -3.74050312	     66.56820966	     -3.03551230	     51.02341672	    118.34454096	     91.84950548	     60.63195561	      2.49282393	     58.56438093	    112.84350998	    106.64047978
      3.90000000	      5.61326874	     11.55037171	     38.57386830	      0.93862763	      1.00851581	     -0.29377852	     34.85522819	    -21.54951961	     -1.48079285	     20.88855075	      0.36457399	     -1.89180410	      1.96341509	     -7.49999987	      9.43614597	     21.80307013	     10.42329850	     44.96069416	      0.78471215	     22.25160551	    -28.50993039	     -7.49999987	    -27.65956614	     -3.94801766	     -3.73536528	     67.34756030	     -4.05080223	     50.75214249	    118.50548223	     90.83526938	     62.07664703	      3.01772469	     58.65890371	    113.11778093	    105.92638753
      3.91666670	      5.58368142	     12.45600915	     38.87161341	      0.93876179	      1.00559903	     -0.29308992	     34.90537286	    -22.56906413	     -0.89701624	     21.02722124	      0.36699424	     -2.63544984	      2.08975915	     -7.49999987	      9.49146243	     22.91441436	     10.57568598	     45.88012474	      0.80075924	     22.88333704	    -28.61904975	     -7.49999987	    -28.39254539	     -4.60125786	     -3.74433343	     67.48732870	     -4.59920331	     50.55175963	    118.03859051	     90.86493175	     63.04324841	      3.28700246	     58.42556805	    113.20150410	    105.94231823
      3.93333330	      5.54114217	     13.63436521	     39.26229048	      0.92571899	      1.00495383	     -0.28771652	     34.96326341	    -23.78057731	      0.06102492	     21.27187089	      0.37126419	     -3.83794193	      1.86821931	     -7.49999987	      9.58385979	     24.16741121	     10.25649769	     46.79942446	      0.81680404	     23.39305017	    -28.14600865	     -7.49999987	    -29.62894531	     -5.57592334	     -3.77871485	     68.04491782	     -5.62141616	     49.86776519	    117.76072727	     90.82676127	     65.07873717	      4.04165442	     58.63528965	    112.37678221	    105.96872763
      3.95000000	      5.51821551	     14.33099663	     39.46788323	      0.93989713	      1.00278566	     -0.29203304	     34.68450623	    -24.51314349	      0.40483249	     21.09613753	      0.36819706	     -4.34355468	      2.07398072	     -7.49999987	      9.48175963	     24.90418882	     10.50213440	     47.49715581	      0.82898175	     23.82115206	    -27.92642387	     -7.49999987	    -30.03988331	     -6.19218233	     -3.45384151	     67.45726429	     -6.58859269	     50.03582057	    117.97350858	     91.26938216	     65.38214071	      4.41878854	     59.06207333	    112.10948999	    105.53675603
      3.96666670	      5.29506629	     14.71854096	     39.61433738	      0.94096791	      0.99621840	     -0.29136162	     34.76712026	    -24.98498446	      1.05214846	     21.14946701	      0.36912783	     -4.83096914	      1.88468627	     -7.49999987	      9.61760137	     25.36223680	     10.46372844	     48.00848465	      0.83790613	     24.30558817	    -27.46093783	     -7.49999987	    -30.02506005	     -6.69687433	     -3.17175677	     67.00113100	     -7.09147520	     49.76153656	    117.77338015	     91.94332842	     65.41141821	      4.72049632	     59.30897963	    112.47718229	    105.75469057
      3.98333330	      5.22602192	     15.08487278	     39.76360302	      0.94306450	      0.99644776	     -0.28831555	     34.77422658	    -25.39721330	      1.46465923	     21.23575723	      0.37063388	     -5.21797402	      1.81759229	     -7.49999987	      9.68786819	     25.69771690	     10.39881300	     48.58649327	      0.84799428	     24.73161864	    -27.17844710	     -7.49999987	    -30.26309570	     -7.15114652	     -2.93652838	     66.60186653	     -7.36554455	     49.51160725	    117.45528286	     91.94078896	     64.89199731	      4.56877041	     59.74391693	    113.09478550	    105.80589859
      4.00000000	      4.97508787	     15.18361334	     39.87306817	      0.94014639	      0.98566585	     -0.28896375	     35.57807926	    -25.62333492	      2.22060102	     21.90997112	      0.38240114	     -5.46741752	      1.09313076	     -7.49999987	     10.69089594	     26.01893083	      9.90759061	     49.92579768	      0.87136955	     26.04499694	    -26.29378655	     -7.49999987	    -30.11903885	     -7.65403769	     -3.06702306	     66.16027003	     -7.25794492	     48.59363747	    117.71524425	     92.14443227	     64.73622735	      4.55104672	     59.91943176	    113.65092759	    105.87767075
      4.01666670	      4.83366169	     15.47073434	     40.16714747	      0.93896104	      0.98532599	     -0.28879087	     36.04675007	    -26.02366397	      2.76276458	     22.28587293	      0.38896186	     -5.75211893	      0.63361649	     -7.49999987	     11.29623006	     26.47868206	      9.63017278	     50.99562132	      0.89004150	     26.72216822	    -26.13154953	     -7.49999987	    -30.35372878	     -8.02407780	     -3.72978104	     65.67872518	     -6.80180793	     48.51622390	    117.49449552	     88.80357456	     64.54210356	      4.09659274	     60.24764502	    114.06611012	    101.23031465
      4.03333330	      4.85711855	     15.68180529	     40.13107363	      0.94495716	      0.98428123	     -0.29109980	     36.03181061	    -26.11302745	      2.91291329	     22.28080968	      0.38887349	     -5.93725123	     -0.04743798	     -7.49999987	     11.39503720	     26.61082162	      9.36642996	     51.63562436	      0.90121166	     27.88524307	    -25.14576859	     -7.49999987	    -30.29905108	     -8.34159851	     -4.03517574	     64.42541859	     -6.23230186	     48.27211948	    117.13281778	     89.80538105	     63.66473253	      3.45974230	     60.02636644	    114.93316252	    102.17323518
      4.05000000	      4.96033901	     15.94050770	     40.17287575	      0.93756358	      0.98330139	     -0.28816742	     35.90670103	    -26.26066284	      2.88823596	     22.36968410	      0.39042464	     -6.20739439	     -0.10250492	     -7.49999987	     11.32534685	     26.84604640	      9.24608892	     52.04462901	      0.90835013	     28.11401007	    -25.12001610	     -7.49999987	    -30.65387155	     -8.64739025	     -4.32550037	     63.75473512	     -6.13659925	     48.36814039	    116.94945249	     89.95055931	     63.19253411	      3.22625666	     60.09541117	    114.98544757	    102.29201278
      4.06666670	      5.09853768	     16.15384967	     40.14302434	      0.93814623	      0.98305490	     -0.28802740	     35.70813237	    -26.34859747	      2.97033372	     22.38925256	      0.39076617	     -6.75108620	     -0.58491052	     -7.49999987	     11.24203056	     26.98111281	      9.11810732	     52.33217208	      0.91336871	     28.75013490	    -24.48830783	     -7.49999987	    -30.81587385	     -8.81976378	     -5.35553781	     62.80512634	     -4.76216044	     47.76350173	    115.58437376	     94.44882261	     61.87105590	      2.11621332	     59.55289428	    115.45082549	    105.97527479
      4.08333330	      5.41615044	     16.22908824	     39.91521439	      0.94320104	      0.98059591	     -0.28996510	     35.16914549	    -26.09827948	      2.81348260	     22.40055112	      0.39096337	     -6.95899244	     -0.94711034	     -7.49999987	     10.95408395	     26.83540919	      9.10781190	     52.51259105	      0.91651761	     29.13081461	    -24.24031708	     -7.49999987	    -30.84359438	     -9.04372931	     -5.56168636	     61.41069394	     -4.18036592	     47.41831027	    115.48171967	     94.60323601	     60.79268654	      1.57678850	     59.78503080	    115.28812347	    105.98574887
      4.10000000	      5.67625471	     16.03199770	     39.63600670	      0.94258221	      0.97877511	     -0.29010065	     35.01443904	    -25.65527895	      2.85597875	     22.73617306	      0.39682108	     -7.18634735	     -1.51714135	     -7.49999987	     11.04156613	     26.58509055	      9.07878814	     52.90049915	      0.92328789	     29.57288961	    -23.95742824	     -7.49999987	    -30.54767638	     -9.01446630	     -5.79305191	     60.13588054	     -3.34812216	     47.27117427	    115.06488151	     96.28271524	     59.60204922	      1.06194296	     59.75373887	    115.28062006	    106.49879711
      4.11666670	      5.97540840	     15.90155706	     39.52978043	      0.93351093	      0.97564922	     -0.28807594	     34.96339534	    -25.35862319	      2.90739210	     23.17614808	      0.40450009	     -7.53369306	     -2.05379635	     -7.49999987	     11.36520109	     26.37021548	      8.71728883	     53.53768435	      0.93440887	     30.10540169	    -23.58705721	     -7.49999987	    -30.71674177	     -8.91998057	     -6.24460587	     59.61820790	     -2.85726273	     47.12561841	    115.31817328	     96.33914702	     58.96441868	      0.80693932	     59.58143924	    114.74826278	    106.47284729
      4.13333330	      6.24631968	     15.94427781	     39.35065333	      0.93354373	      0.97619035	     -0.28797298	     34.74288066	    -25.21263758	      2.78557613	     23.18380757	      0.40463378	     -7.85030439	     -2.44666576	     -7.49999987	     11.47410816	     26.26857431	      8.28464140	     53.93721036	      0.94138191	     30.70560835	    -23.09783904	     -7.49999987	    -31.10981396	     -8.97466630	     -6.92297951	     59.23266231	     -1.89898047	     47.24107223	    115.39424375	     96.93098337	     58.30137282	      0.12066260	     59.59401113	    114.43844821	    106.27944529
      4.15000000	      6.32076568	     15.98688930	     39.23674333	      0.93249903	      0.97127686	     -0.28829621	     34.56190575	    -25.20174105	      2.42801848	     22.95333154	      0.40061121	     -7.94228147	     -2.69765218	     -7.49999987	     11.49711804	     26.19100622	      7.90185872	     54.07615679	      0.94380698	     31.16766886	    -22.47559804	     -7.49999987	    -31.21636634	     -9.10721666	     -7.23965742	     58.68531467	     -1.15200365	     47.21306800	    115.63483551	     97.26178927	     57.77375066	     -0.12006567	     59.62983229	    114.14403311	    106.34278694
      4.16666670	      6.12038648	     15.82224103	     39.12423079	      0.93357616	      0.96886030	     -0.28831101	     34.75673587	    -25.11574652	      2.11729111	     22.93599016	      0.40030855	     -7.83673135	     -3.05655073	     -7.49999987	     11.77022996	     26.05998216	      7.56832390	     54.06968819	      0.94369408	     31.68690430	    -21.64538405	     -7.49999987	    -30.95058724	     -9.28673132	     -7.74273154	     58.06405265	     -0.10971208	     47.51103826	    115.59663989	     98.50125482	     56.87744897	     -0.58416569	     59.60357590	    114.16586106	    106.44893929
